<?xml version="1.0" encoding="UTF-8"?>
<svg xmlns="http://www.w3.org/2000/svg" viewBox="0 0 110 120" fill="none">
  <defs>
    <linearGradient id="baleGrad" x1="0" y1="0" x2="110" y2="120" gradientUnits="userSpaceOnUse">
      <stop offset="0%" stop-color="#2DDCC0"/>
      <stop offset="100%" stop-color="#0090D5"/>
    </linearGradient>
  </defs>
  <!-- Bale "b" blob shape -->
  <path fill="url(#baleGrad)" d="
    M 44 9
    C 38 3 27 5 22 13
    C 17 21 19 34 29 40
    C 20 47 15 59 15 72
    C 15 95 33 112 58 112
    C 83 112 101 95 101 72
    C 101 49 83 32 58 32
    C 53 32 49 33 46 35
    C 45 27 44 18 44 9 Z
  "/>
  <!-- White checkmark -->
  <polyline
    points="37,70 51,85 80,55"
    stroke="white" stroke-width="10" fill="none"
    stroke-linecap="round" stroke-linejoin="round"
  />
</svg>
